Coordinates
version=1
nRows=26
nColumns=22
inDegrees=yes

Units are S.I. units (second, meters, Newtons, ...)
If the header above contains a line with 'inDegrees', this indicates whether rotational values are in degrees (yes) or radians (no).

endheader
time	pelvis_tilt	pelvis_list	pelvis_rotation	pelvis_tx	pelvis_ty	pelvis_tz	hip_flexion_r	hip_adduction_r	hip_rotation_r	knee_angle_r	ankle_angle_r	subtalar_angle_r	hip_flexion_l	hip_adduction_l	hip_rotation_l	knee_angle_l	ankle_angle_l	subtalar_angle_l	lumbar_extension	lumbar_bending	lumbar_rotation
      0.01000000	     -4.20195598	     -3.39357938	     -0.73466758	      1.12962952	      0.94391755	     -0.28691154	      6.52242156	      3.81249584	     -5.40205965	    -11.36997384	      9.97954978	     -2.12929146	      7.38440992	     -6.91466916	     -9.96485200	    -14.81714270	     10.98534984	     -1.80828217	     -2.26283531	      0.77732187	      0.52745690
      0.02000000	     -4.20657562	     -3.39415970	     -0.73884200	      1.12959199	      0.94391025	     -0.28691159	      6.52815037	      3.81343729	     -5.40081322	    -11.36518865	      9.97739260	     -2.13164527	      7.38959601	     -6.91479179	     -9.96733118	    -14.81441756	     10.98641726	     -1.80634865	     -2.27796173	      0.77643139	      0.52786016
      0.03000000	     -4.20342231	     -3.39686694	     -0.75086827	      1.12951828	      0.94391543	     -0.28690130	      6.53974214	      3.81699873	     -5.37668135	    -11.38299384	      9.95312632	     -2.15257942	      7.39805408	     -6.92132261	     -9.98329151	    -14.83263408	     10.99146864	     -1.78877718	     -2.31156038	      0.77719460	      0.54409182
      0.04000000	     -4.21039833	     -3.39796081	     -0.75643072	      1.12948214	      0.94390705	     -0.28690499	      6.54706453	      3.81786622	     -5.37734961	    -11.37659539	      9.95352496	     -2.15446742	      7.40408812	     -6.92168197	     -9.98483907	    -14.82738939	     10.99252473	     -1.78741437	     -2.32860747	      0.77653625	      0.54434709
      0.05000000	     -4.21712994	     -3.39909948	     -0.76011596	      1.12943967	      0.94390194	     -0.28691781	      6.55532621	      3.81791209	     -5.37726870	    -11.37195768	      9.95333676	     -2.15598493	      7.41157011	     -6.92208554	     -9.98593710	    -14.82292885	     10.99321532	     -1.78624834	     -2.34884069	      0.77619493	      0.54525396
      0.06000000	     -4.21608999	     -3.40107257	     -0.76674045	      1.12935763	      0.94390570	     -0.28692731	      6.57283037	      3.81908548	     -5.36597050	    -11.39620517	      9.94283405	     -2.17024702	      7.42757424	     -6.92577717	     -9.98837225	    -14.84753843	     10.99355264	     -1.77452745	     -2.38618986	      0.77579375	      0.55509034
      0.07000000	     -4.22314203	     -3.40215255	     -0.76698876	      1.12932605	      0.94390305	     -0.28695783	      6.58035091	      3.81855721	     -5.36633480	    -11.39124151	      9.94289965	     -2.17149164	      7.43554919	     -6.92496907	     -9.98973693	    -14.84311130	     10.99424280	     -1.77360787	     -2.40504658	      0.77599124	      0.55565846
      0.08000000	     -4.22378433	     -3.40142694	     -0.75874068	      1.12926383	      0.94390824	     -0.28700524	      6.59190828	      3.81448470	     -5.36328027	    -11.40521623	      9.93477979	     -2.18047224	      7.45676507	     -6.92363356	     -9.98734164	    -14.86894372	     10.99301991	     -1.76588913	     -2.43700199	      0.77337171	      0.55562846
      0.09000000	     -4.23040096	     -3.40235718	     -0.76044614	      1.12925437	      0.94390778	     -0.28703947	      6.59761513	      3.81387778	     -5.36483858	    -11.40065141	      9.93482407	     -2.18149155	      7.46369282	     -6.92244191	     -9.98744557	    -14.86668331	     10.99345587	     -1.76509166	     -2.45235679	      0.77338085	      0.55470059
      0.10000000	     -4.23291372	     -3.39946493	     -0.74398060	      1.12922301	      0.94390992	     -0.28711047	      6.60505027	      3.80603895	     -5.37171297	    -11.40695582	      9.92640898	     -2.19058115	      7.49016900	     -6.91761668	     -9.97893644	    -14.89998167	     10.99231227	     -1.75700560	     -2.47548876	      0.76852701	      0.54714766
      0.11000000	     -4.23981477	     -3.40045085	     -0.74447578	      1.12924406	      0.94390938	     -0.28715278	      6.60873706	      3.80499712	     -5.37394902	    -11.40282274	      9.92660596	     -2.19156726	      7.49557968	     -6.91599108	     -9.97869376	    -14.89767547	     10.99294038	     -1.75624430	     -2.48575632	      0.76940369	      0.54595846
      0.12000000	     -4.24657216	     -3.40094404	     -0.74029384	      1.12928078	      0.94390759	     -0.28721118	      6.61116651	      3.80227526	     -5.37614025	    -11.39892046	      9.92615571	     -2.19272823	      7.50146615	     -6.91294224	     -9.97853504	    -14.89721449	     10.99362797	     -1.75528467	     -2.49348327	      0.77068084	      0.54601988
      0.13000000	     -4.28203957	     -3.39448871	     -0.71253938	      1.12932577	      0.94385821	     -0.28730530	      6.64200480	      3.78875374	     -5.41291956	    -11.39299390	      9.91595236	     -2.22137908	      7.55482213	     -6.90027060	     -9.94658839	    -14.91865141	     11.00171340	     -1.73039322	     -2.46230063	      0.76338710	      0.51172584
      0.14000000	     -4.28696863	     -3.39589111	     -0.71244351	      1.12940944	      0.94385580	     -0.28734678	      6.64106778	      3.78820045	     -5.41296589	    -11.39322711	      9.91602176	     -2.22144916	      7.55393969	     -6.89967188	     -9.94674735	    -14.91909690	     11.00175018	     -1.73035883	     -2.46415623	      0.76321929	      0.51216340
      0.15000000	     -4.30818273	     -3.39205636	     -0.71675279	      1.12952801	      0.94383076	     -0.28741079	      6.64260959	      3.78102770	     -5.41812002	    -11.36778175	      9.92055439	     -2.22459133	      7.55716292	     -6.88963105	     -9.95616615	    -14.89854455	     11.00865899	     -1.72978333	     -2.44194644	      0.76251554	      0.53895909
      0.16000000	     -4.33151911	     -3.38520112	     -0.72944189	      1.12965315	      0.94379994	     -0.28745838	      6.65334137	      3.77151657	     -5.40667344	    -11.35536466	      9.92085642	     -2.22784919	      7.55524099	     -6.87772019	     -9.97219975	    -14.87014847	     11.01431694	     -1.72892791	     -2.41583181	      0.75827650	      0.55675811
      0.17000000	     -4.35618601	     -3.37633034	     -0.74836379	      1.12977554	      0.94376653	     -0.28749823	      6.66775547	      3.76064692	     -5.38720028	    -11.34697558	      9.92321448	     -2.23152752	      7.55380816	     -6.86400313	     -9.99249402	    -14.84209295	     11.01575037	     -1.72805944	     -2.38915930	      0.75144796	      0.58750486
      0.18000000	     -4.38470664	     -3.36164121	     -0.78103086	      1.12986324	      0.94372899	     -0.28751630	      6.69685764	      3.74605139	     -5.33985260	    -11.35341064	      9.92758477	     -2.23821294	      7.55626163	     -6.84666049	    -10.03109272	    -14.81482490	     11.01080936	     -1.72811749	     -2.36547285	      0.73733165	      0.62760347
      0.19000000	     -4.39257487	     -3.36147275	     -0.78268964	      1.12996274	      0.94371207	     -0.28760348	      6.69657516	      3.74038464	     -5.33922595	    -11.35063790	      9.92856590	     -2.23873901	      7.55417627	     -6.84046144	    -10.03433731	    -14.81117075	     11.01155486	     -1.72833037	     -2.36253290	      0.74721136	      0.63248438
      0.20000000	     -4.42149314	     -3.35748353	     -0.80290320	      1.13009984	      0.94367388	     -0.28764425	      6.70703875	      3.73542028	     -5.33138195	    -11.32680079	      9.93277701	     -2.24087066	      7.54508502	     -6.83044830	    -10.05552141	    -14.76321548	     11.02021894	     -1.73168629	     -2.32752507	      0.74654515	      0.66796611
      0.21000000	     -4.45031087	     -3.34027748	     -0.84793869	      1.13015411	      0.94363464	     -0.28765254	      6.74118986	      3.71979820	     -5.25595237	    -11.33778503	      9.93039893	     -2.24710503	      7.54784769	     -6.81152266	    -10.10522622	    -14.73661582	     11.01087487	     -1.73821850	     -2.30726597	      0.73193610	      0.72318397
      0.22000000	     -4.46734026	     -3.34095435	     -0.85564331	      1.13023482	      0.94360984	     -0.28772722	      6.74596266	      3.71687513	     -5.25625712	    -11.32211344	      9.93346867	     -2.24917800	      7.54684073	     -6.80599872	    -10.11474583	    -14.71529287	     11.01512659	     -1.74079382	     -2.29545903	      0.74063479	      0.73901608
      0.23000000	     -4.47588062	     -3.34132635	     -0.85947070	      1.13026716	      0.94359751	     -0.28779814	      6.75006947	      3.71338002	     -5.25532330	    -11.31672735	      9.93347776	     -2.24943932	      7.54946485	     -6.80176630	    -10.11634673	    -14.71019679	     11.01576578	     -1.74108267	     -2.30378458	      0.74737390	      0.74159032
      0.24000000	     -4.50371876	     -3.34095279	     -0.87738699	      1.13035066	      0.94356324	     -0.28785385	      6.76154022	      3.71185616	     -5.23788236	    -11.29148519	      9.92673219	     -2.25076913	      7.54994051	     -6.79491115	    -10.12862231	    -14.67400898	     11.02192698	     -1.74518534	     -2.27580709	      0.75446140	      0.77347920
      0.25000000	     -4.51173620	     -3.34142453	     -0.88198953	      1.13036896	      0.94355385	     -0.28791660	      6.76592326	      3.70936309	     -5.23595922	    -11.28668415	      9.92616462	     -2.25097198	      7.55428191	     -6.79104902	    -10.13023331	    -14.67014644	     11.02201514	     -1.74542037	     -2.28539843	      0.76007684	      0.77505603
      0.26000000	     -4.55572013	     -3.34189444	     -0.91562800	      1.13039736	      0.94350026	     -0.28793453	      6.80416662	      3.71323225	     -5.16797706	    -11.27242657	      9.89864115	     -2.25602672	      7.58482158	     -6.79115882	    -10.16232747	    -14.65568031	     11.01875829	     -1.75433450	     -2.24554021	      0.76627590	      0.81502845
